<svg xmlns="http://www.w3.org/2000/svg" width="48" height="48" viewBox="0 0 48 48">
  <rect width="48" height="48" rx="8" fill="#f0ece4"/>
  <path fill="#65220e" d="M24 8C15.163 8 8 15.163 8 24s7.163 16 16 16c3.7 0 7.1-1.256 9.8-3.366a1.5 1.5 0 0 0-1.912-2.312A12.94 12.94 0 0 1 24 36.5c-6.904 0-12.5-5.596-12.5-12.5S17.096 11.5 24 11.5c2.894 0 5.556.983 7.666 2.632a1.5 1.5 0 0 0 1.83-2.377A15.88 15.88 0 0 0 24 8z"/>
  <path fill="#65220e" d="M28 17a1.5 1.5 0 0 0 0 3h3.5v8c0 2.9-2.35 5.25-5.25 5.25h-.5A5.26 5.26 0 0 1 20.5 28v-1a1.5 1.5 0 0 0-3 0v1c0 4.55 3.7 8.25 8.25 8.25h.5c4.55 0 8.25-3.7 8.25-8.25V18a1.5 1.5 0 0 0-1.5-1.5H28z"/>
</svg>
